<svg viewBox="0 0 40 35" xmlns="http://www.w3.org/2000/svg" fill-rule="evenodd" clip-rule="evenodd" stroke-linejoin="round" stroke-miterlimit="2"><g fill-rule="nonzero"><path d="M36.549 3.882a2.924 2.924 0 012.534 3.216L36.84 26.932a2.875 2.875 0 01-3.265 2.534h-.146V11.29a2.924 2.924 0 00-2.924-2.924H6.141l.536-4.873A2.973 2.973 0 019.942.91l26.607 2.972z" fill="#5bf8e7"/><path d="M33.43 20.061v11.16a2.924 2.924 0 01-2.924 2.923H3.753a2.924 2.924 0 01-2.924-2.923v-4.094l8.04-5.848a3.314 3.314 0 014.24.195l5.36 4.678a3.46 3.46 0 003.997.342L33.43 20.06z" fill="#fca908"/><path d="M33.43 11.29v8.771l-10.964 6.433a3.46 3.46 0 01-3.996-.342l-5.36-4.678a3.314 3.314 0 00-4.24-.195L.828 27.127V11.289a2.924 2.924 0 012.924-2.924h26.753a2.924 2.924 0 012.924 2.924z" fill="#fed92d"/></g><circle cx="208.98" cy="192.707" r="33.437" fill="#fcfcec" transform="translate(.829 -1.617) scale(.09327)"/></svg>