<svg viewBox="0 0 31 31" xmlns="http://www.w3.org/2000/svg" fill-rule="evenodd" clip-rule="evenodd" stroke-linejoin="round" stroke-miterlimit="2"><g fill-rule="nonzero"><path d="M7.174 18.61L6.12 22.543l-3.85.082a15.066 15.066 0 01-1.804-7.172c0-2.51.61-4.876 1.692-6.96l3.429.629 1.502 3.407a8.996 8.996 0 00-.486 2.924c0 1.11.202 2.175.57 3.157z" fill="#fbbb00"/><path d="M30.469 12.626a15.24 15.24 0 01-.066 5.987 15.13 15.13 0 01-5.33 8.642v-.001l-4.318-.22-.611-3.815a9.02 9.02 0 003.88-4.606h-8.092v-5.987H30.47z" fill="#518ef8"/><path d="M25.073 27.254a15.07 15.07 0 01-9.473 3.333c-5.764 0-10.775-3.222-13.33-7.962l4.904-4.015a8.998 8.998 0 0012.97 4.609l4.93 4.035z" fill="#28b446"/><path d="M25.26 3.803l-4.903 4.014A9.001 9.001 0 007.089 12.53l-4.93-4.036h-.001C4.677 3.637 9.75.32 15.6.32a15.07 15.07 0 019.66 3.484z" fill="#f14336"/></g></svg>