<svg viewBox="0 0 33 33" xmlns="http://www.w3.org/2000/svg" fill-rule="evenodd" clip-rule="evenodd" stroke-linejoin="round" stroke-miterlimit="2"><g fill="#e52fe7" fill-rule="nonzero"><path d="M29.143 22.356a6.938 6.938 0 01-6.93 6.93H10.33a6.938 6.938 0 01-6.93-6.93V10.474a6.938 6.938 0 016.93-6.93h11.882a6.938 6.938 0 016.93 6.93v11.882zM22.213.573H10.33c-5.466 0-9.9 4.434-9.9 9.901v11.882c0 5.467 4.434 9.901 9.901 9.901h11.882c5.467 0 9.9-4.434 9.9-9.901V10.474c0-5.467-4.433-9.9-9.9-9.9z"/><path d="M16.272 21.366a4.957 4.957 0 01-4.95-4.95c0-2.732 2.221-4.951 4.95-4.951s4.95 2.22 4.95 4.95a4.957 4.957 0 01-4.95 4.95zm0-12.872a7.921 7.921 0 100 15.843 7.921 7.921 0 000-15.843zm8.515-1.649a1.055 1.055 0 110 2.11 1.055 1.055 0 010-2.11z"/></g></svg>