<svg viewBox="0 0 55 48" xmlns="http://www.w3.org/2000/svg" fill-rule="evenodd" clip-rule="evenodd" stroke-linejoin="round" stroke-miterlimit="2"><g fill="#6056de" fill-rule="nonzero"><path d="M48.495 47.97H6.76a5.951 5.951 0 01-5.945-5.945V6.602A5.951 5.951 0 016.76.657h41.736a5.951 5.951 0 015.945 5.945v35.423a5.951 5.951 0 01-5.945 5.945zM6.76 2.428a4.179 4.179 0 00-4.174 4.174v35.423A4.179 4.179 0 006.759 46.2h41.736a4.179 4.179 0 004.174-4.174V6.602a4.179 4.179 0 00-4.174-4.174H6.76z"/><path d="M53.554 14.834H1.7a.885.885 0 110-1.77h51.854a.885.885 0 010 1.77zm-37.613-4.236a2.806 2.806 0 01-2.802-2.802 2.805 2.805 0 012.802-2.802 2.805 2.805 0 012.802 2.802 2.805 2.805 0 01-2.802 2.802zm0-3.833c-.568 0-1.031.462-1.031 1.03a1.032 1.032 0 101.031-1.031zM7.333 10.57a2.805 2.805 0 01-2.803-2.8 2.805 2.805 0 012.802-2.802 2.805 2.805 0 012.801 2.802 2.805 2.805 0 01-2.801 2.801zm0-3.832A1.032 1.032 0 007.332 8.8a1.032 1.032 0 000-2.062zm17.217 3.886a2.805 2.805 0 01-2.802-2.802 2.805 2.805 0 012.801-2.8 2.805 2.805 0 012.802 2.8 2.805 2.805 0 01-2.802 2.802zm0-3.833a1.032 1.032 0 000 2.063 1.032 1.032 0 000-2.063z"/></g><path d="M31.347 24.682h-6.01v-.764a.763.763 0 00-.762-.763h-1.526a.763.763 0 000 1.527h.763v5.341c0 .421.342.763.763.763h6.01c.372 0 .69-.27.752-.638l.763-4.578a.763.763 0 00-.753-.888zm-1.41 4.578h-4.6v-3.052h5.11l-.51 3.052zm.743 3.053a.763.763 0 11-1.527-.001.763.763 0 011.527 0zm-5.247-.763c-.42 0-.858.341-.858.763a.763.763 0 001.526 0c0-.422-.246-.764-.668-.764z" fill="#6056de"/><path d="M47.956 27.147l-4.578-3.815a.763.763 0 00-1.252.586v1.527h-6.105v-4.579a.763.763 0 00-.763-.763H19.996a.763.763 0 00-.763.763v4.579H7.787a.763.763 0 00-.763.763v3.052c0 .421.341.763.763.763h11.446v5.342c0 .421.342.763.763.763h15.262a.763.763 0 00.763-.763v-5.342h6.105v1.526a.763.763 0 001.252.587l4.578-3.815a.765.765 0 000-1.174zm-28.723 1.35H8.55v-1.526h10.683v1.526zm15.262 6.105H20.76V21.629h13.736v12.973zm9.157-4.682v-.66a.763.763 0 00-.763-.763h-6.868v-1.526h6.868a.763.763 0 00.763-.763v-.66l2.623 2.186-2.623 2.186z" fill="#6056de"/></svg>