<svg viewBox="0 0 55 49" xmlns="http://www.w3.org/2000/svg" fill-rule="evenodd" clip-rule="evenodd" stroke-linejoin="round" stroke-miterlimit="2"><path d="M32.647 24.798a.882.882 0 01.58-.19l7.52.254a.885.885 0 01.84 1.056l-1.45 7.383a.885.885 0 11-1.738-.341l1.25-6.363-6.481-.22a.885.885 0 01-.52-1.579zM4.81 43.57a.886.886 0 01-.185-1.364l11.87-12.616a.885.885 0 011.29 1.213L5.915 43.421a.885.885 0 01-1.105.15z" fill="#8cc640" fill-rule="nonzero"/><path d="M24.72 37.613a.886.886 0 01.07-1.374l14.002-10.201a.885.885 0 011.043 1.43L25.833 37.67a.885.885 0 01-1.114-.057z" fill="#8cc640" fill-rule="nonzero"/><path d="M25.762 37.711a.886.886 0 00.185-1.364l-8.166-6.757a.885.885 0 00-1.29 1.213l8.167 6.758a.885.885 0 001.104.15z" fill="#8cc640" fill-rule="nonzero"/><path d="M48.164 47.97H6.427a5.951 5.951 0 01-5.944-5.945V6.602A5.951 5.951 0 016.427.657h41.737a5.951 5.951 0 015.944 5.945v35.423a5.951 5.951 0 01-5.944 5.945zM6.427 2.428a4.179 4.179 0 00-4.174 4.174v35.423A4.179 4.179 0 006.427 46.2h41.737a4.179 4.179 0 004.173-4.174V6.602a4.179 4.179 0 00-4.173-4.174H6.427z" fill="#8cc640" fill-rule="nonzero"/><path d="M53.223 14.834H1.368a.885.885 0 110-1.77h51.855a.885.885 0 010 1.77zM15.61 10.598a2.806 2.806 0 01-2.802-2.802 2.805 2.805 0 012.801-2.802 2.805 2.805 0 012.802 2.802 2.805 2.805 0 01-2.802 2.802zm0-3.833c-.569 0-1.032.462-1.032 1.03a1.032 1.032 0 101.031-1.031zM7.001 10.57A2.805 2.805 0 014.2 7.77a2.805 2.805 0 012.802-2.802A2.805 2.805 0 019.804 7.77 2.805 2.805 0 017 10.57zm0-3.832a1.031 1.031 0 000 2.062 1.032 1.032 0 000-2.062zm17.216 3.886a2.805 2.805 0 01-2.8-2.802 2.805 2.805 0 012.8-2.8 2.805 2.805 0 012.802 2.8 2.805 2.805 0 01-2.802 2.802zm0-3.833a1.032 1.032 0 000 2.063 1.032 1.032 0 000-2.063z" fill="#8cc640" fill-rule="nonzero"/></svg>