<svg viewBox="0 0 55 49" xmlns="http://www.w3.org/2000/svg" fill-rule="evenodd" clip-rule="evenodd" stroke-linejoin="round" stroke-miterlimit="2"><g fill="#f15a26" fill-rule="nonzero"><path d="M21.741 35.075a.882.882 0 01-.573-.211l-5.729-4.878a.885.885 0 010-1.349l5.73-4.878a.885.885 0 111.147 1.348l-4.937 4.204 4.937 4.204a.885.885 0 01-.575 1.56zm11.31 0a.885.885 0 01-.575-1.56l4.937-4.204-4.937-4.204a.885.885 0 011.148-1.348l5.729 4.878a.885.885 0 010 1.349l-5.729 4.878a.882.882 0 01-.573.211zm-7.683 3.659a.886.886 0 01-.868-1.068l3.571-16.952a.885.885 0 011.733.365l-3.57 16.952a.885.885 0 01-.866.703z"/><path d="M48.264 47.97H6.528a5.951 5.951 0 01-5.944-5.945V6.602A5.951 5.951 0 016.528.657h41.736a5.951 5.951 0 015.945 5.945v35.423a5.951 5.951 0 01-5.945 5.945zM6.528 2.428a4.179 4.179 0 00-4.174 4.174v35.423A4.179 4.179 0 006.528 46.2h41.736a4.179 4.179 0 004.174-4.174V6.602a4.179 4.179 0 00-4.174-4.174H6.528z"/><path d="M53.323 14.834H1.47a.885.885 0 110-1.77h51.854a.885.885 0 010 1.77zM15.71 10.598a2.806 2.806 0 01-2.802-2.802 2.805 2.805 0 012.802-2.802 2.805 2.805 0 012.802 2.802 2.805 2.805 0 01-2.802 2.802zm0-3.833c-.568 0-1.031.462-1.031 1.03a1.032 1.032 0 101.031-1.031zM7.102 10.57A2.805 2.805 0 014.3 7.77a2.805 2.805 0 012.802-2.802A2.805 2.805 0 019.904 7.77a2.805 2.805 0 01-2.802 2.801zm0-3.832c-.568 0-1.031.462-1.031 1.03a1.032 1.032 0 101.031-1.031zm17.216 3.886a2.805 2.805 0 01-2.8-2.802 2.805 2.805 0 012.8-2.8 2.805 2.805 0 012.802 2.8 2.805 2.805 0 01-2.802 2.802zm0-3.833a1.032 1.032 0 000 2.063 1.032 1.032 0 000-2.063z"/></g></svg>