<svg viewBox="0 0 27 20" xmlns="http://www.w3.org/2000/svg" fill-rule="evenodd" clip-rule="evenodd" stroke-linejoin="round" stroke-miterlimit="2"><path d="M1.037.8L.17 4.174c3.813.75 5.718 2.584 5.718 5.543 0 .084-.008.209-.033.334a3.424 3.424 0 00-.034.375H2.433v9.127h8.844v-7.71c0-3.626-.846-6.293-2.53-8.044-1.684-1.75-4.255-2.75-7.71-3zm15.295 0l-.866 3.375c3.813.75 5.718 2.584 5.718 5.543a1.8 1.8 0 01-.034.334c-.02.166-.033.292-.033.375h-3.388v9.127h8.843v-7.71c0-3.626-.846-6.293-2.53-8.044-1.683-1.75-4.255-2.75-7.71-3z" fill="#f0f0f0" fill-rule="nonzero"/></svg>