<svg viewBox="0 0 111 30" xmlns="http://www.w3.org/2000/svg" fill-rule="evenodd" clip-rule="evenodd" stroke-linejoin="round" stroke-miterlimit="2"><g transform="matrix(.58615 0 0 .58616 .503 .51)"><clipPath id="a"><path d="M0 0h187v49H0z"/></clipPath><g clip-path="url(#a)"><path d="M76.773.01H0v48.876h70.22c7.74-10.149 1.935-25.795 1.935-34.623 0-7.464 1.54-7.67 4.618-14.253z" fill="gold"/><path d="M86.247 32.54h21.188v5.779H86.247zm0-11.004h21.188v5.78H86.247zm0-11.016h21.188v5.778H86.247zm59.868-.367h5.08v28.53h-5.08zm0-9.993h5.08v5.778h-5.08z"/><path d="M61.701 9.79h-22.48v5.78h8.7v22.752H53V15.569h8.7V9.79zM174.42 24.423l12.543-14.266h-7.188l-8.95 10.178-8.947-10.178h-7.188l12.543 14.264-12.543 14.267h7.188l8.947-10.18 8.95 10.18h7.188L174.42 24.423zM115.006 9.79v28.53h5.08V15.57h2.543c7.003 0 12.704 6.48 12.704 14.447v8.304h5.078v-8.304c0-11.153-7.978-20.227-17.782-20.227h-7.623zM70.585 29.797c2.054 6.8.144 12.546-5.07 19.082h5.732c4.657-3.718 7.632-12.642 4.875-21.772l-.019-.043-2.392-7.981c-2.053-6.8-.144-12.547 5.073-19.083H73.05c-4.662 3.718-7.633 12.643-4.876 21.772l2.392 7.982.019.043z" fill-rule="nonzero"/></g></g></svg>