<svg viewBox="0 0 100 30" xmlns="http://www.w3.org/2000/svg" fill-rule="evenodd" clip-rule="evenodd" stroke-linejoin="round" stroke-miterlimit="2"><g transform="translate(.15 .064) scale(.53482)"><clipPath id="a"><path d="M0 0h185v55.2H0z"/></clipPath><g clip-path="url(#a)"><circle cx="31" cy="24.3" r="11.7" fill="#09abf4"/><g fill-rule="nonzero"><path d="M50.1 0l-7.6 10.1c4.1 3.3 6.7 8.4 6.7 14.1 0 3.9-1.2 7.5-3.3 10.4L30.8 55.2h.2c17.1 0 30.9-13.8 30.9-30.9 0-9.9-4.6-18.6-11.8-24.3z" fill="#f58513"/><path d="M31.1 42.4c-10 0-18.2-8.1-18.2-18.2 0-5.7 2.6-10.7 6.7-14.1L11.3.2C4.4 6 0 14.6 0 24.2c0 14.5 10 26.7 23.5 30l9-11.9c-.5.1-.9.1-1.4.1z" fill="#ffc415"/></g><path d="M96.3 19.1c.9 0 1.7.8 1.7 1.7V35c0 2.9-.5 5.3-1.6 7.4-1 2.1-2.5 3.6-4.4 4.7-1.9 1.1-4 1.6-6.4 1.6-3.7 0-6.7-1.2-8.9-3.6-2.3-2.4-3.4-5.8-3.4-10.1V20.8c0-.9.8-1.7 1.7-1.7h1.7c.9 0 1.7.8 1.7 1.7V36c0 2.3.7 4.2 2.1 5.6 1.4 1.4 3.1 2.2 5.2 2.2 1.4 0 2.6-.3 3.7-1s2-1.6 2.6-2.7c.6-1.2.9-2.5.9-4.1V20.8c0-.9.8-1.7 1.7-1.7h1.7zm10.3-13.2h1.8c.9 0 1.7.8 1.7 1.7v19.2c0 1.5 1.8 2.3 2.9 1.2l8.5-8.3c.3-.3.7-.5 1.2-.5h1.9c1.5 0 2.3 1.9 1.2 2.9l-5.2 5.1c-.9.9-.6 2.4.6 2.8.6.2 1.2.5 1.7.9 1.4.9 2.5 2.1 3.2 3.6.8 1.5 1.1 3 1.1 4.5v7.5c0 .9-.8 1.7-1.7 1.7h-1.8c-.9 0-1.7-.8-1.7-1.7v-6.7c0-1.9-.7-3.4-2-4.5s-2.8-1.7-4.6-1.7c-1.2 0-2.3.4-3.4 1.1-1 .7-1.7 1.7-2 3.1v8.7c0 .9-.8 1.7-1.7 1.7h-1.8c-.9 0-1.7-.8-1.7-1.7v-39c.1-.9.9-1.6 1.8-1.6zm28.6 42.4c-.9 0-1.7-.8-1.7-1.7V31.5c0-2.9.5-5.3 1.6-7.2 1-1.9 2.4-3.3 4.2-4.3 1.7-.9 3.7-1.4 5.7-1.4 3 0 5.6 1 7.6 3 .7.6.6 1.7 0 2.4l-1 1.1c-.6.7-1.7.7-2.4 0-.3-.3-.6-.5-1-.7-.9-.5-2-.8-3.1-.8-2.1 0-3.7.7-4.8 2.1-1 1.4-1.6 3.3-1.6 5.6v15.1c0 .9-.8 1.7-1.7 1.7h-1.8v.2zm31.3-29.1c3.5-.9 6.8-.6 9.7.7 1.8.8 3.4 1.9 4.7 3.3 2 2.1 3.3 4.5 4 7.5v.2c.6 3.8 0 7.2-1.7 10.3-1.3 2.3-3.1 4.2-5.3 5.5-3.2 2-6.9 2.5-11.1 1.7-.1 0-.2 0-.3-.1-3.9-1.4-6.9-3.8-8.8-7.2-1.3-2.3-2-4.8-2-7.5 0-2.6.7-5 2-7.4 1.9-3.3 4.7-5.6 8.4-7.1.2.2.3.2.4.1zm6.1 4.6c-3.5-.6-6.4.3-8.6 2.7-1.8 1.9-2.7 4.3-2.7 7.2 0 2.8.9 5.3 2.7 7.2 1.8 1.9 4 2.9 6.5 2.9 1.7 0 3.2-.4 4.7-1.3 1.4-.9 2.6-2.1 3.4-3.7.8-1.5 1.2-3.3 1.2-5.1 0-1.9-.4-3.6-1.2-5.1-1.2-2.3-3.1-3.8-5.7-4.7-.1 0-.2-.1-.3-.1z" fill="#1c313a" fill-rule="nonzero"/></g></g></svg>