<svg viewBox="0 0 132 32" xmlns="http://www.w3.org/2000/svg" fill-rule="evenodd" clip-rule="evenodd" stroke-linejoin="round" stroke-miterlimit="2"><path fill="none" d="M.75.268h130.278v31.039H.749z"/><path d="M11.132 28.562l-.238-.1.238.1m3.981.988l-.259-.027c.087.01.173.02.26.027m-1.667-.261c-.082-.019-.165-.037-.247-.057.082.02.165.038.247.057m-4.433-1.824c-.08-.05-.16-.103-.24-.155l.24.155m13.764.633a14.424 14.424 0 00-.001-.002l.001.002zM6.4 25.33l.148.152c-.05-.05-.098-.102-.147-.153v.001zM20.689 2.405a.911.911 0 00-.045-.015v.002l.045.013m-8.866 8.766h.117c.736-1.55 1.395-2.752 2.364-4.419l2.902-4.984a13.87 13.87 0 00-9.06 2.724l1.274 2.26c.97 1.706 1.706 3.023 2.403 4.419M5.721 6.793a13.87 13.87 0 00-3.203 8.888c0 2.484.65 4.815 1.788 6.833l5.424-8.979-4.009-6.742zm24.386 11.662" fill="#26a9e0" fill-rule="nonzero"/><path d="M14.692 20.977c-1.357-2.209-2.21-3.643-3.024-5.155h-.077c-.736 1.512-1.473 2.907-2.83 5.194l-2.36 4.314.146.152.029.029c.091.091.184.182.278.272l.007.006c.088.083.176.165.266.246l.069.06c.07.063.141.126.214.187l.082.07a19.286 19.286 0 00.294.24 13.88 13.88 0 00.914.669l.075.05c.079.051.158.103.24.154l.096.06c.075.048.151.093.227.139l.101.06.241.137.087.049c.222.12.446.236.675.345l.08.037c.086.04.173.082.261.12l.112.05.237.1a9.529 9.529 0 00.363.144 16.067 16.067 0 00.406.148l.063.022a12.171 12.171 0 00.73.225l.122.034c.083.022.166.044.25.064.044.012.089.022.134.033a10.063 10.063 0 00.378.085c.092.02.184.037.276.055l.103.02c.127.023.255.044.382.063l.061.01c.108.015.215.03.323.043l.132.015.258.027.146.013a16.84 16.84 0 00.667.04l.128.006a13.766 13.766 0 00.816-.001l.122-.005c.102-.004.204-.008.307-.015l.122-.008c.117-.008.234-.017.35-.028l.061-.006a13.82 13.82 0 00.851-.11l.061-.01c.128-.021.256-.044.383-.07l.032-.006c.14-.027.28-.057.418-.088l-4.885-8.285z" fill="#faaf40" fill-rule="nonzero"/><path d="M30.372 15.12l-.004-.09c-.008-.178-.02-.354-.035-.53l-.008-.101a13.086 13.086 0 00-.058-.53l-.01-.065a13.53 13.53 0 00-.079-.514l-.007-.05a14.216 14.216 0 00-.104-.52l-.02-.094a13.433 13.433 0 00-.293-1.1l-.007-.02a12 12 0 00-.167-.498l-.024-.068c-.059-.162-.12-.322-.185-.48l-.035-.087a14.14 14.14 0 00-.204-.473l-.028-.06a14.05 14.05 0 00-.487-.954c-.013-.023-.026-.045-.038-.069a13.383 13.383 0 00-.262-.44l-.042-.067c-.093-.15-.188-.297-.286-.442l-.015-.02c-.1-.147-.201-.29-.306-.432l-.026-.034a13.543 13.543 0 00-.701-.87l-.038-.043a13.983 13.983 0 00-2.078-1.924l-.007-.005a12.875 12.875 0 00-.44-.317c-.015-.011-.031-.023-.047-.033-.147-.1-.295-.199-.445-.294l-.041-.026a13.51 13.51 0 00-.962-.55l-.029-.016c-.16-.083-.322-.163-.486-.24l-.051-.024c-.165-.077-.332-.15-.5-.22l-.024-.01a13.74 13.74 0 00-1.058-.39l-.046-.015-.045-.013-6.844 10.95 3.06 5.03c-.005-.14-.01-.28-.01-.42 0-1.857.39-3.376 1.266-4.524.794-1.13 1.925-1.654 3.512-1.924.657-.101 1.468-.236 2.025-.438l-.068 1.231c-.422.152-1.164.287-1.705.372-1.316.202-2.278.64-2.902 1.535-.523.743-.827 1.84-.895 2.7h.05a3.092 3.092 0 012.836-1.839c2.009 0 3.477 1.435 3.477 4.034 0 2.667-1.384 4.32-3.78 4.32a3.88 3.88 0 01-.785-.083l2.896 4.76c.266-.136.528-.279.783-.43l.016-.01c.448-.267.88-.56 1.294-.874l.019-.014c.27-.205.532-.42.785-.645l.03-.027c.25-.221.492-.453.726-.692l.03-.032c.117-.12.231-.242.343-.366l.01-.01c.11-.123.217-.247.323-.373l.02-.025c.106-.127.21-.255.31-.386l.032-.04a13.484 13.484 0 00.573-.802l.04-.06c.177-.27.346-.549.505-.833l.037-.067c.077-.14.154-.282.226-.425l.021-.042c.068-.134.133-.27.197-.406l.03-.064c.066-.144.13-.29.19-.437l.03-.075c.058-.14.112-.28.165-.421l.016-.04c.055-.149.107-.3.157-.452l.03-.094a13.511 13.511 0 00.392-1.5l.013-.064c.028-.143.054-.288.078-.433l.015-.092c.024-.157.047-.316.066-.476.005-.032.008-.064.012-.097.016-.146.032-.294.044-.442l.005-.066c.013-.162.023-.325.03-.488l.004-.113a13.728 13.728 0 00-.003-1.064" fill="#37b34a" fill-rule="nonzero"/><path d="M22.944 19.217c0-1.333-.523-3.055-2.279-3.055-.878 0-1.502.456-1.84 1.115-.27.488-.404 1.08-.404 1.738 0 1.35.658 3.291 2.278 3.291 1.637 0 2.245-1.586 2.245-3.089" fill="#37b34a" fill-rule="nonzero"/><path d="M40.017 9.995l.796 1.36c.231.414.446.812.662 1.21h.033c.215-.448.415-.845.63-1.244l.713-1.326h2.735l-2.668 3.863 2.701 4.242h-2.85l-.813-1.458c-.233-.398-.43-.813-.63-1.226h-.05c-.198.43-.414.828-.613 1.226l-.762 1.458h-2.769l2.752-4.127-2.685-3.978h2.818z" fill-rule="nonzero"/><path d="M50.324 14.272c-1.326 0-2.354.315-2.354 1.276 0 .646.431.961.995.961.613 0 1.144-.414 1.31-.928a1.84 1.84 0 00.049-.43v-.879zm2.436 1.873c0 .763.033 1.507.133 1.956h-2.27l-.15-.812h-.05c-.53.646-1.36.994-2.32.994-1.641 0-2.62-1.193-2.62-2.487 0-2.105 1.89-3.098 4.758-3.098v-.1c0-.447-.232-1.061-1.476-1.061-.828 0-1.706.282-2.237.614l-.464-1.625c.563-.315 1.674-.73 3.15-.73 2.7 0 3.546 1.592 3.546 3.515v2.834zm3.848-1.525c0 .2.017.365.05.53.166.68.745 1.194 1.475 1.194 1.093 0 1.74-.912 1.74-2.287 0-1.293-.58-2.271-1.707-2.271-.712 0-1.342.53-1.508 1.276-.033.133-.05.298-.05.448v1.11zm-2.52-1.905c0-1.061-.032-1.957-.066-2.72h2.188l.116 1.128h.034c.596-.846 1.524-1.31 2.701-1.31 1.773 0 3.364 1.542 3.364 4.128 0 2.95-1.872 4.342-3.679 4.342-.978 0-1.74-.398-2.105-.928h-.033v4.027h-2.52v-8.667zm11.775 3.728c.23.033.464.05.845.05.828 0 1.823-.281 1.823-1.26 0-.995-1.078-1.226-1.857-1.226-.33 0-.563.033-.811.083v2.353zm.015-6.448V12.4c.349-.05.83-.1 1.277-.1 1.89 0 3.878.663 3.878 2.818 0 1.028-.447 1.724-1.11 2.188-1.028.713-2.635.896-3.862.896-.928 0-1.856-.05-2.702-.15V9.996h2.52zm8.398 0v3.233h.266l2.055-3.233h2.933l-2.984 3.499c.962.165 1.575 1.043 2.04 2.22.281.663.58 1.624.978 2.386h-2.636c-.216-.347-.415-.928-.73-1.79-.348-.927-.86-1.424-1.673-1.424h-.249V18.1h-2.519V9.995h2.52z" fill-rule="nonzero"/><path d="M81.937 14.04c0 1.392.58 2.436 1.657 2.436.994 0 1.608-.978 1.608-2.453 0-1.193-.464-2.42-1.608-2.42-1.193 0-1.657 1.243-1.657 2.437m5.867-.083c0 2.967-2.106 4.326-4.276 4.326-2.37 0-4.194-1.558-4.194-4.177 0-2.635 1.724-4.31 4.342-4.31 2.47 0 4.128 1.708 4.128 4.16m3.412-.795h.646c1.011 0 1.658-.265 1.658-.878 0-.53-.448-.845-1.46-.845-.33 0-.563.033-.844.05v1.673zm-.018 3.499c.266.033.465.033.846.033.862 0 1.724-.25 1.724-1.045 0-.713-.663-1.028-1.856-1.028h-.714v2.04zm-2.469-6.581a28.532 28.532 0 013.265-.2c1.376 0 4.012.15 4.012 2.072 0 1.044-.846 1.592-1.658 1.74v.051c1.21.199 2.005.86 2.005 1.972 0 2.304-3.132 2.503-4.79 2.503-1.127 0-2.32-.083-2.834-.15V10.08zm12.301 1.657c-.547 0-.945.282-1.177.68-.281.397-.43.895-.43 1.59 0 1.062.447 2.487 1.64 2.487 1.177 0 1.608-1.226 1.608-2.387 0-1.077-.398-2.37-1.641-2.37m3.216-3.58c-.464.133-1.31.248-1.907.299-1.176.115-2.006.43-2.552 1.06-.48.514-.813 1.376-.879 2.006h.084a3.038 3.038 0 012.651-1.526c2.205 0 3.614 1.608 3.614 4.045 0 2.62-1.758 4.26-4.177 4.26-2.818 0-4.227-2.27-4.227-5.353 0-2.106.547-3.813 1.74-4.94.796-.846 1.907-1.326 3.382-1.492.763-.083 1.84-.198 2.42-.348l-.15 1.988zm9.085 1.839V18.1h-2.519v-6.18h-1.757v1.49c0 1.974-.232 3.35-1.144 4.078-.514.547-1.227.796-2.354.796l-.282-1.956c.382-.067.714-.216.912-.43.464-.481.53-1.244.53-2.603v-3.3h6.614zm3.5 4.045c0 1.392.58 2.436 1.657 2.436.994 0 1.608-.978 1.608-2.453 0-1.193-.464-2.42-1.608-2.42-1.193 0-1.657 1.243-1.657 2.437m5.868-.083c0 2.967-2.106 4.326-4.277 4.326-2.37 0-4.194-1.558-4.194-4.177 0-2.635 1.724-4.31 4.342-4.31 2.47 0 4.129 1.708 4.129 4.16m6.577-3.961v1.957h-3.133V18.1h-2.52V9.995h5.653z" fill-rule="nonzero"/><path d="M59.031 22.454h.47v.528c0 .225.01.39.037.491a.462.462 0 00.198.262.6.6 0 00.384.117c.176 0 .406-.048.689-.144v-1.254h.47v2.77h-.47V24.11a2.71 2.71 0 01-.811.133.981.981 0 01-.556-.16.81.81 0 01-.325-.39 1.434 1.434 0 01-.086-.512v-.726zm2.644 0h2.247v.39h-.891v2.38h-.465v-2.38h-.891v-.39zm2.401 1.388c0-.513.144-.892.427-1.143a1.3 1.3 0 01.87-.304c.385 0 .694.123.934.374.24.25.363.592.363 1.03 0 .358-.053.64-.16.843a1.138 1.138 0 01-.464.475 1.374 1.374 0 01-.673.171c-.384 0-.699-.128-.94-.373-.234-.251-.357-.609-.357-1.073zm.486 0c0 .352.075.619.23.795a.737.737 0 00.581.262.737.737 0 00.582-.262c.155-.181.235-.448.235-.811 0-.342-.08-.603-.235-.78a.742.742 0 00-.582-.266.742.742 0 00-.581.266c-.155.177-.23.438-.23.796zm4.026-1.388h.47v2.114l1.297-2.114h.507v2.77h-.47v-2.098l-1.297 2.098h-.507v-2.77zm2.924 0h.47v1.153h1.302v-1.153h.47v2.77h-.47v-1.227h-1.302v1.227h-.47v-2.77zm2.638 0h2.248v.39h-.892v2.38h-.464v-2.38h-.891v-.39zm4.473 1.879l.486.059a1.22 1.22 0 01-.427.661c-.208.155-.47.235-.79.235-.406 0-.726-.128-.966-.373-.235-.251-.353-.604-.353-1.052 0-.464.118-.827.358-1.083.24-.257.55-.385.934-.385.368 0 .673.123.908.38.234.25.352.602.352 1.061 0 .027-.005.07-.005.123h-2.066c.021.304.107.54.261.7a.77.77 0 00.577.24c.17 0 .32-.043.443-.134a.919.919 0 00.288-.432zm-1.543-.758h1.548c-.02-.235-.08-.406-.176-.523a.723.723 0 00-.582-.272.74.74 0 00-.544.218c-.15.144-.23.337-.246.577zm2.56 2.711v-3.832h.426v.363a.997.997 0 01.342-.315.899.899 0 01.459-.107c.24 0 .448.059.63.182.176.122.315.293.406.512.09.224.138.464.138.731 0 .283-.048.54-.15.764a1.158 1.158 0 01-1.056.704.85.85 0 01-.422-.101.936.936 0 01-.304-.251v1.35h-.47zm.426-2.428c0 .352.07.619.214.79.144.17.32.25.523.25.208 0 .39-.085.539-.26.144-.177.219-.45.219-.823 0-.352-.07-.614-.219-.79a.644.644 0 00-.518-.262c-.197 0-.373.091-.528.278-.155.187-.23.46-.23.817zm4.379.475l.485.059c-.08.282-.218.501-.427.661-.208.155-.47.235-.79.235-.405 0-.726-.128-.966-.373-.235-.251-.352-.604-.352-1.052 0-.464.117-.827.358-1.083.24-.257.55-.385.934-.385.368 0 .672.123.907.38.235.25.352.602.352 1.061 0 .027-.005.07-.005.123h-2.066c.022.304.107.54.262.7a.77.77 0 00.576.24c.171 0 .32-.043.443-.134a.919.919 0 00.289-.432zm-1.543-.758h1.548c-.021-.235-.08-.406-.176-.523a.723.723 0 00-.582-.272.74.74 0 00-.544.218c-.15.144-.23.337-.246.577zm4.363.635l.464.059c-.053.32-.181.566-.39.747a1.108 1.108 0 01-.763.272c-.379 0-.683-.123-.912-.373-.23-.246-.347-.604-.347-1.063 0-.299.048-.56.15-.784.095-.224.25-.395.453-.507.203-.112.422-.166.656-.166.305 0 .55.075.742.224.187.155.31.369.363.652l-.453.069a.785.785 0 00-.23-.422.619.619 0 00-.4-.138.731.731 0 00-.577.256c-.15.165-.224.437-.224.8 0 .374.075.646.214.812.144.17.33.25.56.25a.656.656 0 00.46-.165c.122-.112.202-.288.234-.523zm.807-1.756h.47v1.153h1.302v-1.153h.47v2.77h-.47v-1.227H88.54v1.227h-.47v-2.77zm2.713 1.388c0-.513.144-.892.427-1.143a1.3 1.3 0 01.87-.304c.385 0 .694.123.934.374.24.25.363.592.363 1.03 0 .358-.053.64-.16.843a1.138 1.138 0 01-.464.475 1.374 1.374 0 01-.673.171c-.384 0-.699-.128-.94-.373-.234-.251-.357-.609-.357-1.073zm.486 0c0 .352.075.619.23.795a.737.737 0 00.581.262.737.737 0 00.582-.262c.155-.181.235-.448.235-.811 0-.342-.08-.603-.235-.78a.742.742 0 00-.582-.266.742.742 0 00-.581.266c-.155.177-.23.438-.23.796zm2.601-1.388h1.596v.39h-1.126v2.38h-.47v-2.77zm1.596 1.388c0-.513.144-.892.427-1.143a1.3 1.3 0 01.87-.304c.384 0 .694.123.934.374.24.25.363.592.363 1.03 0 .358-.053.64-.16.843a1.138 1.138 0 01-.464.475 1.38 1.38 0 01-.673.171c-.384 0-.7-.128-.94-.373-.234-.251-.357-.609-.357-1.073zm.486 0c0 .352.074.619.23.795a.737.737 0 00.58.262.737.737 0 00.583-.262c.155-.181.235-.448.235-.811 0-.342-.08-.603-.235-.78a.742.742 0 00-.582-.266.742.742 0 00-.582.266c-.155.177-.23.438-.23.796zm4.026-1.388h1.083c.267 0 .465.027.593.07a.706.706 0 01.475.667.67.67 0 01-.086.346.637.637 0 01-.245.246c.133.043.24.123.325.246a.694.694 0 01.129.421c-.016.262-.113.46-.283.582-.166.128-.417.192-.742.192h-1.25v-2.77zm.47 1.169h.501c.198 0 .336-.01.411-.032a.438.438 0 00.203-.128.323.323 0 00.085-.23c0-.144-.048-.245-.154-.304-.102-.053-.278-.085-.529-.085h-.518v.779zm0 1.217h.619c.266 0 .448-.032.55-.096.095-.059.149-.166.154-.315a.45.45 0 00-.085-.251.36.36 0 00-.224-.139 2.203 2.203 0 00-.443-.032h-.572v.833zm3.402.384l1.478-1.99-1.302-1.832h.603l.694.983c.144.202.245.357.304.47.085-.14.187-.289.304-.438l.769-1.015h.55l-1.34 1.805 1.446 2.017h-.63l-.96-1.36c-.054-.081-.107-.166-.166-.257a4.15 4.15 0 01-.181.283l-.961 1.334h-.608zm5.637-.341c-.17.15-.342.25-.502.315-.16.058-.33.09-.518.09-.304 0-.533-.074-.699-.224a.728.728 0 01-.245-.571c0-.134.032-.256.09-.368a.805.805 0 01.246-.273c.101-.069.213-.117.336-.154.09-.022.23-.048.417-.07.379-.042.656-.096.838-.16v-.123c0-.192-.043-.325-.129-.405-.122-.107-.298-.16-.539-.16-.219 0-.379.042-.485.117-.107.08-.182.213-.235.411l-.46-.064c.043-.192.113-.352.209-.475a.935.935 0 01.41-.278c.182-.064.396-.096.63-.096.236 0 .428.027.577.08.15.059.256.128.326.214.07.08.117.187.144.315.016.08.027.224.027.437v.625c0 .432.01.71.026.827.022.112.064.224.123.331h-.491a1.068 1.068 0 01-.096-.341zm-.037-1.047c-.171.07-.427.128-.77.177a1.548 1.548 0 00-.405.096.403.403 0 00-.187.15.42.42 0 00.075.533c.096.085.235.128.416.128.182 0 .342-.043.486-.117a.758.758 0 00.31-.326 1.18 1.18 0 00.075-.47v-.17zm1.143 2.45v-3.832h.427v.363a.997.997 0 01.342-.315.899.899 0 01.459-.107c.24 0 .448.059.63.182.176.122.315.293.405.512.091.224.14.464.14.731 0 .283-.049.54-.15.764a1.158 1.158 0 01-1.057.704.85.85 0 01-.422-.101.936.936 0 01-.304-.251v1.35h-.47zm.427-2.428c0 .352.07.619.214.79.144.17.32.25.523.25.208 0 .39-.085.539-.26.144-.177.219-.45.219-.823 0-.352-.07-.614-.22-.79a.644.644 0 00-.517-.262c-.197 0-.373.091-.528.278-.155.187-.23.46-.23.817zm2.474-1.404h.47v1.083h.597c.384 0 .683.075.892.225.213.15.315.357.315.624 0 .23-.086.427-.262.593-.176.165-.454.245-.838.245h-1.174v-2.77zm.47 2.386h.496c.293 0 .507-.037.635-.112.128-.07.187-.187.187-.342a.438.438 0 00-.139-.32c-.096-.09-.299-.139-.625-.139h-.555v.913zm2.258-2.386h.47v1.2c.15 0 .256-.031.315-.09.058-.053.149-.224.266-.496.091-.22.166-.363.225-.433a.432.432 0 01.197-.144c.075-.021.192-.037.358-.037h.096v.39h-.134c-.122 0-.202.016-.234.053-.038.037-.091.15-.166.342a1.51 1.51 0 01-.197.373.81.81 0 01-.273.192c.203.054.4.24.593.56l.512.86h-.512l-.502-.86c-.101-.17-.192-.282-.267-.335a.451.451 0 00-.277-.086v1.281h-.47v-2.77zm2.166 1.388c0-.513.144-.892.427-1.143a1.3 1.3 0 01.87-.304c.385 0 .694.123.935.374.24.25.363.592.363 1.03 0 .358-.054.64-.16.843a1.138 1.138 0 01-.465.475 1.374 1.374 0 01-.673.171c-.384 0-.699-.128-.939-.373-.235-.251-.358-.609-.358-1.073zm.486 0c0 .352.075.619.23.795a.737.737 0 00.581.262.737.737 0 00.582-.262c.155-.181.235-.448.235-.811 0-.342-.08-.603-.235-.78a.742.742 0 00-.582-.266.742.742 0 00-.581.266c-.155.177-.23.438-.23.796zm2.601-1.388h1.084c.266 0 .464.027.592.07a.706.706 0 01.475.667.67.67 0 01-.085.346.637.637 0 01-.246.246c.134.043.24.123.326.246a.694.694 0 01.128.421c-.016.262-.112.46-.283.582-.166.128-.416.192-.742.192h-1.25v-2.77zm.47 1.169h.501c.198 0 .337-.01.411-.032a.438.438 0 00.203-.128.323.323 0 00.086-.23c0-.144-.048-.245-.155-.304-.102-.053-.278-.085-.529-.085h-.517v.779zm0 1.217h.619c.267 0 .448-.032.55-.096.096-.059.15-.166.154-.315a.45.45 0 00-.085-.251.36.36 0 00-.224-.139 2.203 2.203 0 00-.443-.032h-.571v.833zm4.143-.507l.485.059a1.22 1.22 0 01-.427.661c-.208.155-.47.235-.79.235-.405 0-.726-.128-.966-.373-.235-.251-.352-.604-.352-1.052 0-.464.117-.827.357-1.083.24-.257.55-.385.935-.385.368 0 .672.123.907.38.235.25.352.602.352 1.061 0 .027-.005.07-.005.123h-2.066c.022.304.107.54.262.7a.77.77 0 00.576.24c.171 0 .32-.043.443-.134a.919.919 0 00.288-.432zm-1.543-.758h1.548c-.022-.235-.08-.406-.176-.523a.723.723 0 00-.582-.272.74.74 0 00-.545.218c-.15.144-.23.337-.245.577z" fill="#000100" fill-rule="nonzero"/></svg>