<svg viewBox="0 0 110 30" xmlns="http://www.w3.org/2000/svg" fill-rule="evenodd" clip-rule="evenodd" stroke-linejoin="round" stroke-miterlimit="2"><g transform="translate(.583 .012) scale(.4481)"><clipPath id="a"><path d="M0 0h242v66H0z"/></clipPath><g clip-path="url(#a)"><path fill="none" d="M0 0h241.711v65.75H0z"/><path d="M38.528 39.87l-5.726 6.21-5.714-6.197a32.679 32.679 0 00-13.439 5.69 21.503 21.503 0 01-2.405-9.902c0-11.931 9.672-21.604 21.603-21.604 11.931 0 21.604 9.673 21.604 21.604 0 3.57-.872 6.935-2.406 9.902a32.675 32.675 0 00-13.517-5.703m22.849-20.488l.505-12.458-12.27.497a32.687 32.687 0 00-16.765-4.597 32.693 32.693 0 00-16.783 4.608L3.532 6.924l.513 12.667.36-.36A32.692 32.692 0 000 35.672 32.693 32.693 0 005.552 53.95a32.999 32.999 0 008.097 8.375 21.692 21.692 0 017.687-8.375 21.496 21.496 0 0111.51-3.325 21.5 21.5 0 0111.512 3.325 21.692 21.692 0 017.687 8.375 33.026 33.026 0 008.097-8.375 32.693 32.693 0 005.552-18.278 32.69 32.69 0 00-4.317-16.289" fill="#4d58d8" fill-rule="nonzero"/><path d="M24.725 59.6c2.352 2.104 5.135 3.326 8.122 3.326s5.77-1.222 8.122-3.325c-2.351-2.104-5.135-3.326-8.122-3.326s-5.77 1.222-8.122 3.326" fill="#4d58d8" fill-rule="nonzero"/><path d="M102.103 45.06c0-1.359-.454-2.467-1.46-3.273-.958-.856-2.67-1.662-5.137-2.367-4.23-1.259-7.454-2.72-9.67-4.381-2.165-1.712-3.223-4.029-3.223-6.95 0-2.92 1.209-5.338 3.727-7.201 2.518-1.864 5.69-2.77 9.568-2.77 3.929 0 7.152 1.058 9.62 3.122 2.467 2.115 3.676 4.684 3.575 7.756l-.05.15h-6.95c0-1.661-.554-3.02-1.662-4.028-1.108-1.058-2.67-1.561-4.633-1.561-1.914 0-3.425.453-4.482 1.31-1.058.855-1.562 1.913-1.562 3.273 0 1.208.554 2.165 1.713 2.97 1.108.756 3.021 1.612 5.791 2.469 3.928 1.107 6.95 2.568 8.964 4.33 2.065 1.814 3.072 4.18 3.072 7.101 0 3.072-1.208 5.49-3.626 7.303-2.417 1.762-5.64 2.618-9.568 2.618s-7.302-1.007-10.223-3.021c-2.921-1.964-4.331-4.785-4.23-8.41l.05-.152h7c0 2.116.655 3.677 1.914 4.684 1.309.957 3.122 1.46 5.489 1.46 1.914 0 3.424-.402 4.432-1.208 1.057-.806 1.56-1.864 1.56-3.223zm19.602 9.368h-7.201v-26.59h7.201v26.59zm0-32.986h-7.201v-5.389h7.201v5.389zm14.408-.152v6.548h4.482v5.036h-4.482V46.42c0 1.008.201 1.763.654 2.216.403.454 1.008.655 1.713.655.352 0 .705 0 .956-.05.303-.05.605-.101.957-.202l.605 5.187c-.705.202-1.41.403-2.115.554-.655.1-1.41.151-2.216.151-2.468 0-4.382-.654-5.741-2.014-1.31-1.36-1.964-3.525-1.964-6.497V32.874h-3.929v-5.036h3.929V21.29h7.15zm20.857 33.641c-3.878 0-6.9-1.208-9.216-3.676-2.316-2.468-3.424-5.59-3.424-9.367v-1.007c0-3.928 1.057-7.202 3.223-9.72 2.165-2.568 5.086-3.827 8.763-3.827 3.575 0 6.395 1.057 8.36 3.223 1.963 2.165 2.97 5.086 2.97 8.813v3.878h-15.863l-.05.15c.1 1.763.705 3.174 1.712 4.332 1.058 1.108 2.468 1.662 4.28 1.662 1.562 0 2.871-.151 3.929-.454 1.057-.302 2.216-.805 3.475-1.51l1.913 4.431c-1.057.907-2.467 1.612-4.23 2.216-1.763.554-3.727.856-5.842.856zm-.654-22.057c-1.31 0-2.367.503-3.173 1.51-.756 1.008-1.209 2.367-1.41 4.03l.1.1h8.763v-.655c0-1.51-.352-2.72-1.057-3.626-.705-.906-1.763-1.36-3.223-1.36zm26.653 16.518c1.31 0 2.316-.353 3.072-1.108.805-.705 1.158-1.712 1.158-2.971h6.547l.05.15c.1 2.72-.957 4.936-3.021 6.749-2.116 1.813-4.684 2.72-7.806 2.72-3.928 0-7-1.26-9.166-3.727-2.115-2.518-3.223-5.741-3.223-9.67v-.755c0-3.928 1.108-7.151 3.223-9.67 2.115-2.517 5.187-3.776 9.166-3.776 3.273 0 5.892.906 7.906 2.82 2.015 1.863 3.022 4.331 2.921 7.353l-.05.15h-6.547c0-1.359-.353-2.517-1.108-3.424-.755-.906-1.813-1.36-3.122-1.36-1.914 0-3.223.706-4.03 2.216-.755 1.46-1.157 3.375-1.157 5.691v.705c0 2.417.402 4.28 1.158 5.741.806 1.46 2.115 2.166 4.029 2.166zm30.547 5.036a21.45 21.45 0 01-.705-1.914 24.979 24.979 0 01-.403-2.065c-.705 1.31-1.712 2.367-2.92 3.223-1.209.856-2.62 1.26-4.281 1.26-2.82 0-4.935-.706-6.446-2.116-1.51-1.46-2.266-3.424-2.266-5.892 0-2.619 1.007-4.633 3.021-6.043 2.015-1.46 4.936-2.166 8.763-2.166h4.029V36.6c0-1.259-.353-2.266-1.007-2.971-.705-.705-1.662-1.058-2.972-1.058-1.158 0-2.064.303-2.72.856-.603.554-.956 1.36-.956 2.317h-6.9l-.05-.151c-.1-2.266.856-4.18 2.921-5.842 2.065-1.611 4.784-2.417 8.159-2.417 3.172 0 5.74.806 7.755 2.417 1.964 1.612 2.971 3.928 2.971 6.9v10.978c0 1.26.101 2.417.302 3.525.152 1.108.454 2.216.857 3.274h-7.152zm-6.597-4.785c1.26 0 2.418-.302 3.374-.956 1.008-.605 1.662-1.31 2.015-2.166v-3.727h-4.029c-1.51 0-2.67.353-3.475 1.108a3.846 3.846 0 00-1.158 2.77c0 .907.302 1.612.906 2.166.554.503 1.36.805 2.367.805zm26.544-28.353v6.548h4.482v5.036h-4.482V46.42c0 1.008.202 1.763.655 2.216.403.454 1.007.655 1.712.655.353 0 .705 0 .957-.05a8.09 8.09 0 00.957-.202l.604 5.187c-.705.202-1.41.403-2.115.554-.655.1-1.41.151-2.216.151-2.467 0-4.381-.654-5.74-2.014-1.31-1.36-1.965-3.525-1.965-6.497V32.874h-3.928v-5.036h3.928V21.29h7.151z" fill-rule="nonzero"/></g></g></svg>