<svg viewBox="0 0 37 34" xmlns="http://www.w3.org/2000/svg" fill-rule="evenodd" clip-rule="evenodd" stroke-linejoin="round" stroke-miterlimit="2"><path d="M35.114 14.347a.692.692 0 00-.626-.395h-2.041C31.145 6.902 24.96 1.546 17.54 1.546c-8.358 0-15.159 6.801-15.159 15.16 0 8.36 6.801 15.161 15.159 15.161a15.213 15.213 0 0013.13-7.578 1.378 1.378 0 00-2.384-1.38 12.46 12.46 0 01-10.746 6.202c-6.839 0-12.403-5.564-12.403-12.406 0-6.838 5.564-12.402 12.403-12.402 5.891 0 10.828 4.133 12.085 9.646h-2.027a.689.689 0 00-.624.398.677.677 0 00.096.733l3.445 4.136a.68.68 0 00.527.245.683.683 0 00.529-.245l3.448-4.136a.692.692 0 00.095-.733z" fill="#02c3ff" fill-rule="nonzero"/><path d="M17.54 4.99c-.76 0-1.376.617-1.376 1.38v8.362a2.408 2.408 0 001.38 4.386c.364 0 .704-.086 1.015-.232l4.794 2.766c.218.127.452.188.688.188a1.379 1.379 0 00.692-2.572l-4.801-2.77a2.406 2.406 0 00-1.012-1.766V6.371c0-.76-.617-1.38-1.38-1.38zm0 12.751a1.034 1.034 0 11.003-2.068 1.034 1.034 0 01-.003 2.068z" fill="#02c3ff" fill-rule="nonzero"/></svg>