<svg viewBox="0 0 41 26" xmlns="http://www.w3.org/2000/svg" fill-rule="evenodd" clip-rule="evenodd" stroke-linejoin="round" stroke-miterlimit="2"><g fill="#8cc640" fill-rule="nonzero"><path d="M32.234 17.47c-.78-1.613-3.569-3.85-6.263-6.013-1.503-1.205-2.924-2.344-3.83-3.242a.832.832 0 00-.865-.192c-.557.2-.902.354-1.173.474-.414.184-.553.246-1.111.302a.828.828 0 00-.606.36c-1.17 1.735-2.382 1.587-3.191 1.318-.259-.085-.305-.195-.33-.3-.174-.721.699-2.399 1.83-3.52 2.69-2.67 4.077-3.338 7.006-2.04a97.071 97.071 0 006.688 2.64.828.828 0 001.054-.505.82.82 0 00-.51-1.046 94.307 94.307 0 01-6.555-2.589c-3.795-1.682-5.878-.574-8.852 2.377-1.132 1.123-2.67 3.396-2.273 5.062.17.71.673 1.235 1.422 1.48 1.875.613 3.587.025 4.862-1.653.526-.08.812-.198 1.243-.39.155-.069.337-.15.579-.246.947.881 2.224 1.907 3.57 2.986 2.434 1.952 5.193 4.165 5.814 5.445.306.632-.023 1.044-.247 1.233-.328.28-.776.368-1.02.199a.835.835 0 00-.893-.03.819.819 0 00-.4.793c.057.522-.425.821-.633.925-.53.266-1.083.22-1.29.029a.842.842 0 00-.859-.168c-.294.11-.5.38-.53.692-.05.538-.451 1.055-.976 1.257-.253.096-.621.153-.95-.146a.843.843 0 00-.757-.19.825.825 0 00-.58.517c-.032.082-.103.279-.878.279-.551 0-1.543-.37-2.028-.688-.58-.379-4.224-3.075-7.37-5.688-.443-.37-1.208-1.161-1.883-1.86-.6-.621-1.147-1.184-1.429-1.42a.829.829 0 00-1.167.096.817.817 0 00.098 1.158c.257.215.754.735 1.301 1.302.738.765 1.501 1.556 2.015 1.983 3.082 2.56 6.787 5.322 7.525 5.803.609.397 1.922.956 2.938.956.816 0 1.443-.186 1.879-.549a2.597 2.597 0 001.882-.02 3.25 3.25 0 001.723-1.577c.652.138 1.399.041 2.077-.297.664-.332 1.144-.84 1.382-1.432.66.035 1.338-.197 1.9-.674.95-.806 1.21-2.06.661-3.192z"/><path d="M17.42 3.868H9.97a.825.825 0 00-.827.82c0 .454.37.821.827.821h7.45a.825.825 0 00.827-.82.825.825 0 00-.828-.821zm17.24 11.855a.83.83 0 00-1.15-.224l-2.42 1.612a.817.817 0 00-.224 1.14.833.833 0 001.148.223l2.42-1.612a.817.817 0 00.225-1.14zm-5.139 3.917c-.593-.463-3.242-3.154-4.881-4.848a.83.83 0 00-1.17-.025.815.815 0 00-.026 1.16c.426.44 4.179 4.32 5.05 5.003a.83.83 0 00.512.176.84.84 0 00.653-.314.816.816 0 00-.138-1.152zm-3.307 1.646c-.992-.786-3.483-3.411-4.046-4.019a.834.834 0 00-1.17-.049.818.818 0 00-.05 1.16c.03.032 3.003 3.215 4.231 4.19a.835.835 0 001.164-.127.818.818 0 00-.129-1.155zM22.92 22.94c-1.18-.987-3.596-3.537-4.067-4.037a.832.832 0 00-1.17-.04.817.817 0 00-.04 1.16c.678.721 2.99 3.15 4.21 4.172a.833.833 0 001.167-.099.817.817 0 00-.1-1.157z"/><path d="M10.54 2.451C9.12 1.118 3.449.686 1.744.586a.827.827 0 00-.878.819V16.18c0 .454.371.821.828.821H6.66a.827.827 0 00.786-.566c.121-.368 2.973-9.05 3.349-13.318a.813.813 0 00-.255-.666zM6.056 15.359H2.522V2.285c2.66.209 5.53.662 6.573 1.164-.439 3.595-2.423 9.983-3.04 11.91zm33.71-13.133c-6.499 0-10.104 1.65-10.255 1.719a.819.819 0 00-.35 1.177c1.022 1.633 4.225 10.706 4.841 12.918a.826.826 0 00.798.603h4.966a.825.825 0 00.828-.821V3.047a.824.824 0 00-.828-.821zM38.938 17H35.42c-.785-2.535-3.102-9.144-4.395-11.876 1.263-.425 3.977-1.156 7.914-1.247V17z"/></g></svg>