<svg viewBox="0 0 26 33" xmlns="http://www.w3.org/2000/svg" fill-rule="evenodd" clip-rule="evenodd" stroke-linejoin="round" stroke-miterlimit="2"><g fill="#fd8f50" fill-rule="nonzero"><path d="M25.946 15.213a3.544 3.544 0 00-.325-2.206 3.55 3.55 0 00.325-2.207 3.545 3.545 0 00-1.06-1.962 3.544 3.544 0 00-2.116-3.666 3.546 3.546 0 00-1.17-1.9 3.546 3.546 0 00-2.073-.82 3.544 3.544 0 00-1.748-1.386 3.545 3.545 0 00-2.23-.063A3.545 3.545 0 0013.433.3a3.55 3.55 0 00-2.117.703 3.546 3.546 0 00-2.23.063A3.547 3.547 0 007.34 2.451a3.547 3.547 0 00-2.074.822 3.546 3.546 0 00-1.17 1.9 3.537 3.537 0 00-1.666 1.48 3.545 3.545 0 00-.45 2.185A3.545 3.545 0 00.92 10.8a3.544 3.544 0 00.325 2.207 3.544 3.544 0 00-.325 2.206 3.544 3.544 0 001.06 1.962c-.088.752.066 1.52.45 2.185a3.546 3.546 0 001.667 1.481c.118.5.344.97.662 1.374l-2.795 5.849a.954.954 0 001.072 1.341l4.21-.954 1.901 3.875c.16.326.493.533.856.533h.005a.954.954 0 00.856-.542l2.57-5.378 2.57 5.378c.157.33.49.54.855.542h.005a.954.954 0 00.857-.533l1.902-3.875 4.209.954a.954.954 0 001.071-1.341l-2.794-5.849c.317-.404.543-.873.662-1.374a3.544 3.544 0 001.667-1.481 3.547 3.547 0 00.45-2.185 3.553 3.553 0 001.06-1.962zm-2.2-1.62a1.633 1.633 0 01-.421 2.389.954.954 0 00-.402 1.103 1.634 1.634 0 01-1.213 2.1.954.954 0 00-.754.9 1.635 1.635 0 01-1.858 1.559.953.953 0 00-1.017.587 1.634 1.634 0 01-2.28.83.953.953 0 00-1.156.204 1.635 1.635 0 01-2.425 0 .953.953 0 00-1.156-.204c-.408.217-.891.25-1.325.093a1.636 1.636 0 01-.955-.923.954.954 0 00-1.016-.587 1.635 1.635 0 01-1.277-.365 1.636 1.636 0 01-.581-1.194.954.954 0 00-.755-.9 1.636 1.636 0 01-1.074-.78 1.64 1.64 0 01-.139-1.32.954.954 0 00-.401-1.103 1.635 1.635 0 01-.421-2.388.954.954 0 000-1.174 1.635 1.635 0 01.42-2.39.954.954 0 00.402-1.102 1.635 1.635 0 011.213-2.1.954.954 0 00.755-.9c.016-.462.228-.897.581-1.194.354-.296.819-.43 1.277-.365a.953.953 0 001.016-.587 1.634 1.634 0 012.28-.83.954.954 0 001.156-.204 1.635 1.635 0 012.425 0c.294.325.77.41 1.157.204a1.633 1.633 0 012.279.83.954.954 0 001.017.587c.457-.064.923.069 1.276.365.353.297.566.732.582 1.194a.954.954 0 00.755.9 1.635 1.635 0 011.212 2.1.954.954 0 00.402 1.103 1.633 1.633 0 01.421 2.389.954.954 0 000 1.174zm-4.438 12.83a.954.954 0 00-1.067.51l-1.366 2.784-2.05-4.29c.256-.11.5-.25.724-.417a3.554 3.554 0 002.23-.063 3.546 3.546 0 001.748-1.385 3.55 3.55 0 001.01-.209l1.795 3.756-3.024-.686zm-10.683.51a.955.955 0 00-1.068-.51l-3.023.686 1.795-3.756c.323.118.664.189 1.01.21a3.545 3.545 0 001.748 1.383c.72.263 1.504.281 2.23.064.224.167.468.307.724.417l-2.05 4.29-1.366-2.784z"/><path d="M13.433 4.649c-4.609 0-8.358 3.749-8.358 8.358 0 4.608 3.75 8.357 8.358 8.357 4.608 0 8.358-3.749 8.358-8.357 0-4.61-3.75-8.358-8.358-8.358zm0 14.808a6.457 6.457 0 01-6.45-6.45 6.457 6.457 0 016.45-6.45 6.458 6.458 0 016.45 6.45 6.458 6.458 0 01-6.45 6.45z"/><path d="M11.98 15.748a.954.954 0 001.348 0l4.134-4.134a.954.954 0 00-1.35-1.349l-3.458 3.46-1.901-1.902a.954.954 0 10-1.35 1.35l2.576 2.575z"/></g></svg>