<svg viewBox="0 0 29 33" xmlns="http://www.w3.org/2000/svg" fill-rule="evenodd" clip-rule="evenodd" stroke-linejoin="round" stroke-miterlimit="2"><g transform="translate(.828 .195) scale(.1893)"><clipPath id="a"><path d="M0 .583h145v171.999H0z"/></clipPath><g clip-path="url(#a)" fill="#a783ff" fill-rule="nonzero"><path d="M143.852 44.72c-.09-4.629-.172-9-.172-13.23 0-3.313-2.688-6-6-6-25.66 0-45.196-7.375-61.481-23.207a5.999 5.999 0 00-8.367 0C51.551 18.115 32.015 25.49 6.355 25.49c-3.312 0-6 2.687-6 6 0 4.23-.082 8.605-.171 13.234-.821 43.067-1.95 102.051 69.867 126.945a6.02 6.02 0 001.965.332 6.01 6.01 0 001.964-.332c71.817-24.894 70.692-83.878 69.872-126.949zM72.016 159.634c-61.59-22.375-60.661-71.386-59.832-114.683.05-2.598.097-5.118.132-7.586 24.032-1.012 43.246-8.297 59.7-22.625 16.453 14.328 35.672 21.613 59.707 22.625.035 2.468.082 4.988.132 7.582.825 43.297 1.754 92.312-59.839 114.687z"/><path d="M92.676 65.451L63.719 94.408l-12.36-12.36a5.999 5.999 0 00-8.484 0 5.998 5.998 0 000 8.485l16.602 16.602a5.982 5.982 0 004.242 1.757c1.534 0 3.07-.586 4.242-1.757l33.199-33.2a5.997 5.997 0 000-8.484 5.997 5.997 0 00-8.484 0z"/></g></g></svg>