<svg viewBox="0 0 82 42" xmlns="http://www.w3.org/2000/svg" fill-rule="evenodd" clip-rule="evenodd" stroke-linejoin="round" stroke-miterlimit="2"><g transform="translate(.59 .037) scale(.23957)"><clipPath id="a"><path d="M0 0h339v173H0z"/></clipPath><g clip-path="url(#a)"><g fill-rule="nonzero"><path d="M338.3 63.6c0-10.222-3.542-18.897-10.625-25.97-7.084-7.128-15.773-10.665-25.955-10.665-10.183 0-18.872 3.537-25.955 10.665-7.084 7.073-10.626 15.748-10.626 25.97 0 4.864.83 9.34 2.435 13.539a55.612 55.612 0 00-8.08-.608c-6.751 0-13.337 1.216-19.535 3.426V46.084h3.874c2.767 0 5.091-.939 6.862-2.707 1.771-1.768 2.657-4.09 2.657-6.852 0-2.818-.941-5.084-2.657-6.852-1.77-1.768-4.095-2.708-6.862-2.708h-3.874v-2.044c0-3.813 1.273-5.747 3.93-5.747.719 0 2.158.829 4.371 2.487 2.158 1.657 4.095 2.486 5.811 2.486 2.49 0 4.483-1.16 6.032-3.426 1.384-2.044 2.048-4.255 2.048-6.852 0-4.586-1.937-8.178-5.866-10.664-3.265-2.045-7.36-3.15-12.286-3.15-6.42 0-11.843 2.266-16.326 6.741-4.538 4.532-6.751 9.947-6.751 16.357v3.923h-3.874c-2.767 0-5.092.94-6.863 2.707-1.77 1.769-2.656 4.034-2.656 6.852 0 2.763.94 5.084 2.656 6.852 1.771 1.769 4.096 2.708 6.863 2.708h3.874v44.537c0 .332.055.663.055.94-2.878 2.597-5.534 5.58-7.858 8.786a51.282 51.282 0 00-24.24-8.952l1.992-1.824c7.14-7.128 10.681-15.748 10.681-25.915 0-10.168-3.542-18.843-10.68-25.916-7.14-7.128-15.773-10.665-25.9-10.665-6.586 0-12.729 1.658-18.429 5.029-1.66-3.37-4.538-5.029-8.578-5.029-2.822 0-5.091.94-6.917 2.708-1.771 1.768-2.712 4.089-2.712 6.907v51.224a39.755 39.755 0 00-18.041-11.162V36.69c0-2.818-.941-5.084-2.712-6.908-1.77-1.768-4.04-2.707-6.862-2.707-2.767 0-5.092.94-6.862 2.707-1.771 1.769-2.712 4.09-2.712 6.908v39.343c-6.586 1.27-12.729 4.255-17.82 8.51V9.613c0-2.818-.94-5.083-2.712-6.907C68.9.94 66.631 0 63.864 0 61.097 0 58.772.94 57 2.707c-1.77 1.769-2.711 4.09-2.711 6.908v21.77c-5.368-2.928-11.18-4.364-17.433-4.364-10.127 0-18.816 3.591-25.955 10.664C3.542 44.813 0 53.434 0 63.601s3.542 18.843 10.68 25.916c3.266 3.26 6.808 5.746 10.682 7.515-9.132 7.294-14.998 18.566-14.998 31.165 0 5.47 1.107 10.83 3.265 15.859.166.386.61.663 1.052.663h303.822c.554 0 1.052-.387 1.163-.94.608-3.315.885-6.741.885-10.112 0-12.543-4.095-24.203-11.013-33.652 8.467-.828 15.828-4.254 21.97-10.443 7.25-7.128 10.792-15.748 10.792-25.971zm-24.737 78.798H11.456c-1.827-4.531-2.767-9.228-2.767-14.201 0-20.777 16.934-37.63 37.687-37.63 16.16 0 30.548 10.277 35.695 25.528.221.608.885.94 1.494.719l.775-.277c.277-.11.553-.331.664-.607.11-.277.11-.608.055-.885A40.94 40.94 0 0067.904 93.44a37.658 37.658 0 0130.88-16.08c20.808 0 37.687 16.909 37.687 37.63 0 .94-.055 2.045-.11 3.04-1.44 2.652-2.602 5.47-3.598 8.398a.999.999 0 00.056.885c.11.276.387.497.664.607l.775.277c.608.165 1.272-.11 1.494-.719 6.751-20.39 25.844-34.093 47.372-34.093 15.385 0 29.718 6.962 39.237 19.008.387.497 1.162.608 1.66.166l.664-.497a1.21 1.21 0 00.443-.774c.055-.332-.056-.608-.222-.884-2.822-3.537-5.977-6.742-9.518-9.45 10.348-13.924 26.73-22.157 44.051-22.157 30.272 0 54.843 24.59 54.843 54.76 0 3.039-.221 5.967-.72 8.84zM152.409 51.223c3.376-3.426 7.471-5.083 12.341-5.083 4.815 0 8.966 1.713 12.342 5.083 3.43 3.426 5.09 7.57 5.09 12.433 0 4.808-1.715 8.952-5.09 12.433-3.376 3.426-7.472 5.084-12.342 5.084-4.814 0-8.965-1.713-12.34-5.084-3.432-3.426-5.092-7.57-5.092-12.433.055-4.918 1.77-9.062 5.091-12.433zm-128.17 0c3.376-3.426 7.471-5.083 12.341-5.083 4.815 0 8.966 1.713 12.342 5.083 3.43 3.426 5.09 7.57 5.09 12.433 0 4.808-1.715 8.952-5.09 12.433-3.376 3.426-7.472 5.084-12.342 5.084-4.814 0-8.965-1.713-12.34-5.084-3.432-3.426-5.092-7.57-5.092-12.433 0-4.918 1.716-9.062 5.091-12.433zm289.822 24.81c-3.376 3.427-7.471 5.084-12.341 5.084-4.815 0-8.966-1.712-12.341-5.083-3.432-3.426-5.092-7.57-5.092-12.433 0-4.807 1.716-8.952 5.092-12.433 3.375-3.426 7.47-5.084 12.34-5.084 4.815 0 8.966 1.713 12.342 5.084 3.43 3.426 5.091 7.57 5.091 12.433-.055 4.863-1.715 9.007-5.091 12.433z" fill="#518fee"/><path d="M100.665 23.595c3.32 0 6.143-1.16 8.468-3.426 2.324-2.321 3.486-5.029 3.486-8.344 0-3.26-1.162-6.078-3.486-8.4C106.808 1.106 103.986 0 100.665 0c-3.32.055-6.142 1.215-8.411 3.481-2.325 2.32-3.487 5.084-3.487 8.4 0 3.26 1.162 6.022 3.487 8.343 2.269 2.265 5.091 3.37 8.411 3.37z" fill="#3d8bd8"/></g><g fill="#518fee"><path d="M81.905 165.55l-.056 7.35h-3.984v-18.622h3.984v1.934h.056c.996-1.492 2.324-2.265 4.095-2.265 1.66 0 2.933.607 3.819 1.713.885 1.105 1.383 2.652 1.383 4.641 0 2.155-.553 3.813-1.605 5.14-1.051 1.27-2.435 1.933-4.206 1.933-1.494 0-2.656-.608-3.486-1.823zm-.11-5.249v.995c0 .884.22 1.602.719 2.155.442.552 1.106.829 1.826.829.885 0 1.605-.332 2.103-1.05.498-.719.72-1.658.72-2.929 0-2.265-.886-3.37-2.657-3.37-.83 0-1.494.331-1.992.939-.498.608-.72 1.437-.72 2.431zm23.464 1.492h-8.357c.11 1.879 1.328 2.763 3.487 2.763 1.383 0 2.656-.332 3.708-.995v2.819c-1.163.607-2.712.939-4.594.939-2.047 0-3.652-.608-4.814-1.713-1.107-1.105-1.716-2.763-1.716-4.752 0-2.155.609-3.813 1.882-5.029 1.217-1.215 2.767-1.878 4.538-1.878 1.881 0 3.32.552 4.316 1.657s1.494 2.597 1.494 4.476l.056 1.713zm-3.653-2.431c0-1.824-.72-2.763-2.213-2.763-.61 0-1.163.276-1.605.774-.443.552-.72 1.16-.83 1.989h4.648zm14.334-1.492c-.443-.276-.997-.387-1.66-.387-.83 0-1.495.332-1.993.94-.498.607-.72 1.491-.72 2.541v6.079h-3.984v-12.765h3.985v2.376h.055c.609-1.768 1.77-2.597 3.376-2.597.443 0 .72.055.996.166l-.055 3.647zm1.106 8.841v-3.15c.665.387 1.273.719 1.937.885.664.165 1.218.276 1.827.276.72 0 1.217-.055 1.66-.276.387-.222.609-.443.609-.885 0-.22-.056-.442-.277-.607-.221-.166-.443-.332-.72-.443-.276-.11-.608-.22-.94-.331l-.996-.332c-.499-.22-.997-.386-1.384-.607-.387-.221-.72-.442-.996-.774a3.7 3.7 0 01-.609-.995c-.11-.386-.221-.829-.221-1.381 0-.718.166-1.326.442-1.879.333-.497.72-.94 1.218-1.27a4.602 4.602 0 011.77-.72c.665-.165 1.384-.22 2.104-.22.609 0 1.107.055 1.715.11.61.056 1.163.221 1.716.387v3.04c-.498-.332-1.051-.498-1.605-.664a5.978 5.978 0 00-1.66-.22c-.277 0-.498.054-.72.054-.22.056-.442.111-.608.222-.222.055-.332.22-.443.331-.11.166-.166.332-.166.442 0 .221.055.442.221.608.166.166.332.331.61.442.22.11.497.221.83.332.331.055.608.22.885.331.553.221.996.387 1.438.608.443.22.775.442 1.107.774.332.331.554.607.72.994.166.387.221.829.221 1.382 0 .773-.166 1.381-.498 1.934a3.812 3.812 0 01-1.328 1.326c-.554.331-1.162.608-1.882.718-.72.166-1.439.221-2.213.221a11.24 11.24 0 01-3.764-.663zm18.208.663c-2.159 0-3.819-.608-4.981-1.768-1.218-1.216-1.826-2.818-1.826-4.863 0-2.1.608-3.757 1.881-4.973 1.273-1.216 2.989-1.768 5.147-1.768 2.158 0 3.819.608 4.98 1.768 1.218 1.216 1.827 2.763 1.827 4.752 0 2.155-.609 3.813-1.882 5.029-1.272 1.215-2.988 1.823-5.146 1.823zm.11-10.388c-.94 0-1.66.331-2.158.994s-.775 1.548-.775 2.708c0 2.431.996 3.702 2.989 3.702 1.881 0 2.822-1.215 2.822-3.757-.055-2.432-.996-3.647-2.878-3.647zm21.805 10.057h-3.93v-7.073c0-1.99-.719-2.984-2.158-2.984-.72 0-1.217.276-1.66.773-.443.553-.664 1.216-.664 1.99v7.294h-3.985v-12.765h3.985v1.99h.055c.941-1.548 2.325-2.321 4.095-2.321 2.823 0 4.206 1.768 4.206 5.25v7.846h.056zm13.724 0h-3.708v-1.824h-.055c-.83 1.437-2.158 2.155-3.818 2.155-1.218 0-2.214-.331-2.933-1.05-.72-.718-1.107-1.602-1.107-2.818 0-2.486 1.494-3.923 4.427-4.31l3.431-.442c0-1.381-.775-2.1-2.269-2.1-1.494 0-2.988.442-4.372 1.382v-2.984c.554-.277 1.328-.553 2.27-.719.995-.22 1.825-.331 2.6-.331 3.653 0 5.479 1.823 5.479 5.47v7.57h.055zm-3.708-5.195v-.828l-2.324.331c-1.273.166-1.937.718-1.937 1.768 0 .442.166.83.443 1.105.332.277.72.443 1.273.443.72 0 1.383-.277 1.826-.774.498-.608.72-1.271.72-2.045z" fill-rule="nonzero"/><path d="M173.937 148.145h3.985v18.898h-3.985z"/><path d="M201.552 166.38c-1.328.607-3.043.939-5.146.939-2.767 0-4.87-.829-6.475-2.376-1.605-1.603-2.38-3.758-2.38-6.41 0-2.873.885-5.194 2.656-6.907 1.771-1.768 4.096-2.653 6.863-2.653 1.77 0 3.21.221 4.427.664v3.868c-1.218-.719-2.546-1.106-4.095-1.106-1.66 0-3.044.553-4.096 1.603-1.051 1.05-1.55 2.486-1.55 4.31 0 1.768.499 3.094 1.495 4.144.996.995 2.27 1.547 3.93 1.547 1.604 0 3.043-.386 4.316-1.16v3.647h.055v-.11z" fill-rule="nonzero"/><path d="M204.209 148.145h3.984v18.898h-3.984z"/><path d="M217.657 167.374c-2.159 0-3.819-.608-4.981-1.768-1.218-1.216-1.826-2.818-1.826-4.863 0-2.1.608-3.757 1.881-4.973 1.273-1.216 2.989-1.768 5.147-1.768 2.158 0 3.818.608 4.98 1.768 1.218 1.216 1.827 2.763 1.827 4.752 0 2.155-.609 3.813-1.882 5.029-1.328 1.215-2.988 1.823-5.146 1.823zm.055-10.388c-.94 0-1.66.331-2.158.994s-.775 1.548-.775 2.708c0 2.431.996 3.702 2.988 3.702 1.882 0 2.823-1.215 2.823-3.757 0-2.432-.997-3.647-2.878-3.647zm21.638 10.057h-3.929v-1.934h-.055c-.996 1.492-2.27 2.265-3.93 2.265-2.933 0-4.482-1.768-4.482-5.36v-7.736h3.93v7.35c0 1.823.719 2.707 2.157 2.707.72 0 1.273-.221 1.716-.718.443-.498.609-1.16.609-1.99v-7.349h3.929v12.765h.055zm15.772 0h-3.984v-1.769h-.055c-.886 1.382-2.214 2.045-3.985 2.045-1.605 0-2.878-.608-3.819-1.713-.94-1.105-1.494-2.708-1.494-4.752 0-2.1.554-3.813 1.605-5.084 1.052-1.27 2.49-1.879 4.206-1.879 1.605 0 2.767.608 3.431 1.769h.056v-7.57h3.984v18.953h.055zm-3.873-6.19v-.994c0-.829-.222-1.492-.72-2.044-.443-.553-1.107-.83-1.881-.83-.886 0-1.55.332-2.048 1.05-.498.719-.72 1.603-.72 2.819 0 1.105.222 1.989.72 2.597.443.608 1.107.884 1.992.884.83 0 1.44-.332 1.937-.995.498-.552.72-1.436.72-2.486z" fill-rule="nonzero"/></g></g></g></svg>